<?xml version="1.0" encoding="UTF-8"?>
<svg width="84px" height="67px" viewBox="0 0 84 67" version="1.1" xmlns="http://www.w3.org/2000/svg" xmlns:xlink="http://www.w3.org/1999/xlink">
    <!-- Generator: Sketch 52.6 (67491) - http://www.bohemiancoding.com/sketch -->
    <title>Case</title>
    <desc>Created with Sketch.</desc>
    <g id="Symbols" stroke="none" stroke-width="1" fill="none" fill-rule="evenodd">
        <g id="Illustrations/Case" transform="translate(-3.000000, 0.000000)">
            <g id="Case" transform="translate(3.000000, 0.000000)">
                <path d="M79.6451899,44.6438386 L46.6455696,44.6099146 L46.6455696,48.0023196 C46.6409051,49.6209209 45.3297405,50.9320854 43.7111392,50.93675 L39.4112658,50.93675 C37.8036899,50.9416266 36.4916772,49.6520886 36.4683544,48.0447247 L36.4683544,44.6523196 L3.50265823,44.6523196 C2.23856329,44.647443 1.00987658,44.2339937 0,43.4734589 L0,62.979788 C0.00932911392,65.1538956 1.76956329,66.9141297 3.94367089,66.9234589 L79.1024051,66.9234589 C81.2896582,66.9516582 83.0857247,65.2016013 83.1139241,63.0143481 C83.1139241,63.0141361 83.1139241,63.0139241 83.1139241,63.013712 L83.1139241,43.5073829 C82.1080759,44.2458671 80.8929589,44.6440506 79.6451899,44.6438386 Z" id="Path" fill="#2192E7"></path>
                <path d="M79.1363291,11.1183956 C79.1363291,11.1183956 79.1363291,11.1183956 79.1363291,11.1183956 L57.6708861,11.1183956 L57.6708861,5.12231962 C57.6685538,3.78507595 57.1346741,2.50359494 56.1867089,1.5602943 C55.2434082,0.612329114 53.9619272,0.0784493671 52.6246835,0.0761170886 L30.4553165,0.0761170886 C27.6449209,0.0761170886 25.3667089,2.35432911 25.3667089,5.16472468 L25.3667089,11.1608006 L3.97759494,11.1608006 C1.80666772,11.1512595 0.0324398734,12.8913513 0,15.0620665 L0,38.7156108 C0.00466455696,40.6293513 1.55499367,42.1796804 3.46873418,42.1843449 L36.4683544,42.1843449 L36.4683544,38.7919399 C36.473019,37.1731266 37.7841835,35.8621741 39.4027848,35.8575095 L43.6941772,35.8575095 C45.3049335,35.8479684 46.6222468,37.1387785 46.6455696,38.7495348 L46.6455696,42.1419399 L79.6197468,42.1419399 C81.5271266,42.151481 83.0859367,40.6227785 83.1139241,38.7156108 L83.1139241,15.0620665 C83.1045949,12.8748133 81.3237943,11.1090665 79.1363291,11.1183956 Z M52.5144304,11.1183956 L30.5994937,11.1183956 L30.5994937,5.26649684 L52.5144304,5.26649684 L52.5144304,11.1183956 Z" id="Shape" fill="#3FAAFA" fill-rule="nonzero"></path>
            </g>
        </g>
    </g>
</svg>