<?xml version="1.0" encoding="UTF-8"?>
<svg width="67px" height="67px" viewBox="0 0 67 67" version="1.1" xmlns="http://www.w3.org/2000/svg" xmlns:xlink="http://www.w3.org/1999/xlink">
    <!-- Generator: Sketch 52.6 (67491) - http://www.bohemiancoding.com/sketch -->
    <title>Cash</title>
    <desc>Created with Sketch.</desc>
    <g id="Symbols" stroke="none" stroke-width="1" fill="none" fill-rule="evenodd">
        <g id="Illustrations/Cash" transform="translate(-11.000000, -1.000000)">
            <g id="Cash" transform="translate(11.000000, 1.000000)">
                <path d="M63.9536383,15.3544043 L49.7011702,15.3544043 C51.6584255,17.1035319 53.332,19.1534468 54.6434894,21.4442766 L63.9536383,21.4442766 C65.635766,21.4442766 67,20.0814681 67,18.3993404 C67,16.7186383 65.635766,15.3544043 63.9536383,15.3544043 Z" id="Path" fill="#2192E7"></path>
                <path d="M63.9536383,23.0337447 L55.4660213,23.0337447 C56.3812128,24.9439574 57.0569149,26.9824681 57.4489362,29.123617 L63.9536383,29.123617 C65.635766,29.123617 67,27.7608085 67,26.0786809 C67,24.3965532 65.635766,23.0337447 63.9536383,23.0337447 Z" id="Path" fill="#2192E7"></path>
                <path d="M63.9536383,7.67791489 L41.4088511,7.67791489 C40.0959362,7.67791489 38.9911489,8.51042553 38.5606383,9.67080851 C41.9320213,10.3864255 45.0339787,11.8148085 47.7367872,13.7677872 L63.9550638,13.7677872 C65.638617,13.7677872 67.0028511,12.4049787 67.0028511,10.7228511 C67.0028511,9.0407234 65.635766,7.67791489 63.9536383,7.67791489 Z" id="Path" fill="#2192E7"></path>
                <path d="M41.4088511,6.08987234 L63.9536383,6.08987234 C65.635766,6.08987234 67,4.72706383 67,3.04493617 C67,1.36423404 65.635766,0 63.9536383,0 L41.4088511,0 C39.7252979,0 38.3624894,1.36423404 38.3624894,3.0463617 C38.3624894,4.72848936 39.7252979,6.08987234 41.4088511,6.08987234 Z" id="Path" fill="#2192E7"></path>
                <path d="M63.9536383,30.7088085 L57.6912766,30.7088085 C57.7953404,31.6268511 57.8623404,32.5548723 57.8623404,33.5 C57.8623404,34.6204681 57.7611277,35.7195532 57.6128723,36.7986809 L63.9522128,36.7986809 C65.6343404,36.7986809 66.9985745,35.4344468 66.9985745,33.7523191 C66.9985745,32.0701915 65.635766,30.7088085 63.9536383,30.7088085 Z" id="Path" fill="#2192E7"></path>
                <path d="M63.9536383,38.3867234 L57.3691064,38.3867234 C56.928617,40.5392766 56.1873404,42.5749362 55.2194043,44.4765957 L63.9536383,44.4765957 C65.635766,44.4765957 67,43.1137872 67,41.4316596 C67,39.7495319 65.635766,38.3867234 63.9536383,38.3867234 Z" id="Path" fill="#2192E7"></path>
                <path d="M63.9536383,46.0632128 L54.3341489,46.0632128 C52.9385532,48.3682979 51.1922766,50.429617 49.1380851,52.1530851 L63.9536383,52.1530851 C65.635766,52.1530851 67,50.7902766 67,49.1081489 C67,47.4260213 65.635766,46.0632128 63.9536383,46.0632128 Z" id="Path" fill="#2192E7"></path>
                <path d="M3.0463617,36.2911915 L9.3087234,36.2911915 C9.20323404,35.3731489 9.13623404,34.4451277 9.13623404,33.5 C9.13623404,32.3795319 9.23887234,31.2818723 9.38570213,30.2013191 L3.0463617,30.2013191 C1.36423404,30.2027447 0,31.5655532 0,33.2476809 C0,34.928383 1.36423404,36.2911915 3.0463617,36.2911915 Z" id="Path" fill="#2192E7"></path>
                <path d="M3.0463617,43.9691064 L11.5339787,43.9691064 C10.6202128,42.0588936 9.94308511,40.020383 9.55106383,37.8806596 L3.0463617,37.8806596 C1.36423404,37.8806596 0,39.2420426 0,40.9241702 C0,42.6062979 1.36423404,43.9691064 3.0463617,43.9691064 Z" id="Path" fill="#2192E7"></path>
                <path d="M3.0463617,28.6147021 L9.63089362,28.6147021 C10.0699574,26.4635745 10.8126596,24.4264894 11.7791702,22.5248287 L3.0463617,22.5248298 C1.36423404,22.5234043 0,23.8862128 0,25.569766 C0,27.2533191 1.36423404,28.6147021 3.0463617,28.6147021 Z" id="Path" fill="#2192E7"></path>
                <path d="M3.0463617,20.9382128 L12.6658511,20.9382128 C14.0614468,18.6345532 15.8077234,16.5718085 17.8604894,14.8483404 L3.0463617,14.8483404 C1.36423404,14.8483404 0,16.2111489 0,17.8918511 C0,19.5739787 1.36423404,20.9382128 3.0463617,20.9382128 Z" id="Path" fill="#2192E7"></path>
                <path d="M3.0463617,51.6455957 L17.2988298,51.6455957 C15.3415745,49.8964681 13.668,47.8479787 12.3565106,45.5571489 L3.0463617,45.5571489 C1.36423404,45.5571489 0,46.9199574 0,48.6006596 C0,50.2842128 1.36423404,51.6455957 3.0463617,51.6455957 Z" id="Path" fill="#2192E7"></path>
                <path d="M3.0463617,59.3235106 L25.5911489,59.3235106 C26.9040638,59.3235106 28.0102766,58.491 28.4393617,57.330617 C25.0679787,56.615 21.9660213,55.186617 19.2646383,53.2336383 L3.0463617,53.2336383 C1.36423404,53.2322128 0,54.5950213 0,56.2785745 C0,57.9607021 1.36423404,59.3235106 3.0463617,59.3235106 Z" id="Path" fill="#2192E7"></path>
                <path d="M25.5911489,60.9115532 L3.0463617,60.9115532 C1.36423404,60.9115532 0,62.2729362 0,63.9564894 C0,65.6371915 1.36423404,67 3.0463617,67 L25.5911489,67 C27.2747021,67 28.6375106,65.635766 28.6375106,63.9536383 C28.6375106,62.2715106 27.2747021,60.9115532 25.5911489,60.9115532 Z" id="Path" fill="#2192E7"></path>
                <path d="M33.5,12.1825957 C21.7450638,12.1825957 12.1825957,21.7450638 12.1825957,33.5 C12.1825957,45.2549362 21.7450638,54.8188298 33.5,54.8188298 C45.2549362,54.8188298 54.8174043,45.2563617 54.8174043,33.5 C54.8174043,21.7436383 45.2549362,12.1825957 33.5,12.1825957 Z" id="Shape" fill="#39AAFF" fill-rule="nonzero"></path>
                <path d="M33.5,48.7275319 C25.103617,48.7275319 18.2724681,41.8978085 18.2724681,33.5 C18.2724681,25.103617 25.103617,18.2724681 33.5,18.2724681 C41.8978085,18.2724681 48.7275319,25.103617 48.7275319,33.5 C48.7275319,41.8978085 41.8978085,48.7275319 33.5,48.7275319 Z" id="Path" fill="#D8EEFF" fill-rule="nonzero"></path>
                <path d="M34.3881064,31.4429574 L34.3881064,26.1798936 C37.453,26.2369149 37.4301915,29.1991702 39.2292128,29.1991702 C40.1700638,29.1991702 40.9783404,28.5648085 40.9783404,27.4842553 C40.9783404,24.7700426 36.5463617,23.4143617 34.3881064,23.3573404 L34.3881064,21.8819149 C34.3881064,21.4100638 34.0260213,20.9396383 33.5527447,20.9396383 C33.0851702,20.9396383 32.7273617,21.4100638 32.7273617,21.8819149 L32.7273617,23.3573404 C29.2661702,23.4642553 26.1357021,25.4072553 26.1357021,29.1706596 C26.1357021,32.2455319 28.6218298,34.0459787 32.7273617,34.7915319 L32.7273617,40.580617 C28.1243191,40.3867447 30.5363191,36.5648936 27.4343617,36.5648936 C26.3880213,36.5648936 25.7194468,37.2049574 25.7194468,38.3097447 C25.7194468,40.4993617 28.0473404,43.2962553 32.7273617,43.4102979 L32.7273617,45.1237872 C32.7273617,45.5942128 33.0851702,46.0646383 33.5527447,46.0646383 C34.0260213,46.0646383 34.3881064,45.5942128 34.3881064,45.1237872 L34.3881064,43.4102979 C38.5121702,43.1608298 41.2805532,41.2748511 41.2805532,37.5641915 C41.2805532,33.2975745 38.0445957,32.2198723 34.3881064,31.4429574 Z M32.7273617,31.1393191 C30.6503617,30.7216383 29.6197021,29.9219149 29.6197021,28.5334468 C29.6197021,27.3445532 30.8385319,26.2354894 32.7273617,26.1784681 L32.7273617,31.1393191 Z M34.3881064,40.5791915 L34.3881064,35.0965957 C35.8792128,35.4258936 37.7965532,35.9804255 37.7965532,37.8621277 C37.7965532,39.6896596 36.0474255,40.4694255 34.3881064,40.5791915 Z" id="Shape" fill="#39AAFF" fill-rule="nonzero"></path>
            </g>
        </g>
    </g>
</svg>