<?xml version="1.0" encoding="UTF-8"?>
<svg width="60px" height="68px" viewBox="0 0 60 68" version="1.1" xmlns="http://www.w3.org/2000/svg" xmlns:xlink="http://www.w3.org/1999/xlink">
    <!-- Generator: Sketch 52.6 (67491) - http://www.bohemiancoding.com/sketch -->
    <title>Delivery-1</title>
    <desc>Created with Sketch.</desc>
    <g id="Symbols" stroke="none" stroke-width="1" fill="none" fill-rule="evenodd">
        <g id="Illustrations/Delivery-1" transform="translate(-15.000000, 0.000000)" fill-rule="nonzero">
            <g id="Delivery-1" transform="translate(15.000000, 0.000000)">
                <path d="M0.457141925,11.7089788 C-0.809676998,7.86936378 1.28323654,3.71448613 5.12329527,2.44744535 C8.963354,1.18040457 13.1180098,3.27398369 14.3848287,7.11359869 L28.7942838,50.7861272 C27.451478,50.4315954 26.023367,50.3667015 24.5976966,50.6273866 L10.647491,8.34680587 C10.0604502,6.56749103 8.13570636,5.59785318 6.35650245,6.18489396 C4.5771876,6.77193475 3.60754976,8.69667863 4.19459054,10.4758825 C4.53503426,11.507863 3.97450571,12.6207113 2.94241436,12.961155 C1.91043393,13.3015987 0.797696574,12.7409592 0.457141925,11.7089788 Z" id="Path" fill="#249AF3"></path>
                <path d="M57.2301533,45.9685546 L33.6211746,53.7582708 C34.4590277,54.7094943 35.1231648,55.8403132 35.5449201,57.1181142 C35.5598956,57.1637064 35.5683263,57.2097423 35.5826362,57.2554454 L58.4633605,49.7060033 C59.4953409,49.3655595 60.0559804,48.2527113 59.7155367,47.2208418 C59.3749821,46.1886395 58.2620228,45.628 57.2301533,45.9685546 Z" id="Path" fill="#249AF3"></path>
                <path d="M33.6763067,57.735106 C35.0140098,61.7892594 32.8117194,66.1601175 28.757677,67.4978206 C24.7035237,68.8355237 20.3326656,66.6333442 18.9949625,62.5791909 C17.6572594,58.5249266 19.8595498,54.1541794 23.9135922,52.8164763 C27.9677455,51.4786623 32.3387145,53.6809527 33.6763067,57.735106 Z" id="Path" fill="#187ECB"></path>
                <path d="M30.0059706,58.9460163 C29.3371746,56.9189951 27.1518564,55.8180163 25.1246134,56.4868124 C23.0975922,57.1554976 21.9965024,59.3410375 22.6652985,61.3680587 C23.3340946,63.3950799 25.5195237,64.4961697 27.5466558,63.8274845 C29.573677,63.1585775 30.6747667,60.9730375 30.0059706,58.9460163 Z" id="Path" fill="#D8EEFF"></path>
                <path d="M51.2636803,16.3449592 L59.2790277,40.6382643 C59.4493051,41.154199 59.1689853,41.7106232 58.6529396,41.8809005 L33.4252724,50.204522 C32.9093377,50.3747993 32.3529135,50.0944796 32.1827471,49.5784339 L24.1673997,25.2851289 C23.9971223,24.7690832 24.2774421,24.21277 24.7934878,24.0424927 L50.021044,15.7187602 C50.5370897,15.5487047 51.0934029,15.8289135 51.2636803,16.3449592 Z" id="Path" fill="#249AF3"></path>
                <path d="M40.4308254,15.9636933 L35.30631,0.432182708 C35.1974878,0.102277325 34.8417357,-0.0769853181 34.5118303,0.0319477977 L30.0594388,1.50099184 L18.3830734,5.35369657 C18.0530571,5.46251876 17.8740163,5.8182708 17.9828385,6.14817618 L23.1074649,21.6797977 C23.2162871,22.0097031 23.5720392,22.1889657 23.9019445,22.0800326 L40.0309233,16.7582838 C40.3604959,16.6493507 40.5397586,16.2935987 40.4308254,15.9636933 Z" id="Path" fill="#249AF3"></path>
            </g>
        </g>
    </g>
</svg>