<?xml version="1.0" encoding="UTF-8"?>
<svg width="88px" height="66px" viewBox="0 0 88 66" version="1.1" xmlns="http://www.w3.org/2000/svg" xmlns:xlink="http://www.w3.org/1999/xlink">
    <!-- Generator: Sketch 52.6 (67491) - http://www.bohemiancoding.com/sketch -->
    <title>Email</title>
    <desc>Created with Sketch.</desc>
    <g id="Symbols" stroke="none" stroke-width="1" fill="none" fill-rule="evenodd">
        <g id="Illustrations/Email" transform="translate(0.000000, -2.000000)">
            <g id="Email" transform="translate(0.000000, 2.000000)">
                <path d="M32.4834584,36.7572438 L28.1711426,56.3671336 C28.0359448,56.9813361 28.2738547,57.6159217 28.7792937,57.9891886 C29.0590847,58.1958868 29.3919038,58.3016245 29.7263152,58.3016245 C29.9952776,58.3016245 30.2659917,58.233309 30.5101121,58.0963595 L42.476669,51.3363109 L32.4834584,36.7572438 Z" id="Path" fill="#249AF3"></path>
                <path d="M87.5672416,2.05170065 C87.5656492,2.13259638 87.5532282,2.21189968 87.5392147,2.28961054 C87.5532282,2.20871481 87.5656492,2.13259638 87.5672416,2.05170065 Z" id="Path" fill="#63B473"></path>
                <path d="M86.8454701,3.3625937 L34.3309226,36.7322425 C34.0727888,36.8970596 33.7757995,36.9811402 33.4772179,36.9811402 C33.313834,36.9811402 33.1506093,36.9562982 32.9920425,36.9048626 L32.4709578,36.738453 L32.4833788,36.7572438 L42.4765894,51.3363109 L51.8569512,65.0244102 C52.1555329,65.4583489 52.6469585,65.7164827 53.1710291,65.7164827 C53.2006484,65.7164827 53.2317009,65.7148903 53.2629126,65.7132979 C53.8196282,65.6822454 54.3186975,65.3604141 54.5784238,64.867396 L87.3991998,2.76240469 C87.4209764,2.72354926 87.4177915,2.67991652 87.4348306,2.63946866 C87.3120538,2.92419616 87.1254203,3.18535561 86.8454701,3.3625937 Z" id="Path" fill="#3AAAFF"></path>
                <path d="M85.5205636,0.498120404 L85.5251817,0.496527968 C85.5237485,0.496527968 85.5221561,0.498120404 85.5205636,0.498120404 Z" id="Path" fill="#63B473"></path>
                <path d="M87.4708992,1.47014314 C87.5019517,1.55247206 87.5159652,1.63798586 87.5316108,1.72206646 C87.5159652,1.63655267 87.5019517,1.55247206 87.4708992,1.47014314 Z" id="Path" fill="#63B473"></path>
                <path d="M87.1707251,0.967729685 C87.2267788,1.02999392 87.268859,1.10627159 87.3138851,1.17777195 C87.268859,1.10467915 87.2298045,1.03317879 87.1707251,0.967729685 Z" id="Path" fill="#63B473"></path>
                <path d="M86.7351939,0.611661068 C86.7257588,0.607043004 86.7149302,0.607043004 86.7041016,0.602424941 C86.7584037,0.628859373 86.8004838,0.673925303 86.8502872,0.706570234 C86.8082469,0.678543366 86.7802201,0.636503064 86.7351939,0.611661068 Z" id="Path" fill="#63B473"></path>
                <path d="M86.0010811,0.44525154 C86.046147,0.44525154 86.091213,0.429804914 86.1347263,0.432830541 C86.0896205,0.429804914 86.046147,0.44525154 86.0010811,0.44525154 Z" id="Path" fill="#63B473"></path>
                <path d="M87.5672416,2.05170065 C87.5702672,1.94134486 87.5532282,1.83401469 87.5314516,1.72206646 C87.5158059,1.63798586 87.5017925,1.55247206 87.47074,1.47014314 C87.458319,1.4389314 87.4613844,1.40485328 87.4474904,1.37364154 C87.4148455,1.29911555 87.3571993,1.24465425 87.3137258,1.17777195 C87.2686997,1.10627159 87.2266196,1.02999392 87.1705659,0.967729685 C87.0772491,0.861991956 86.9668933,0.781255467 86.850327,0.706570234 C86.8005236,0.673925303 86.7584435,0.628859373 86.7041415,0.602424941 C86.5267441,0.513726274 86.3355324,0.451462039 86.1348855,0.432830541 C86.0913722,0.429804914 86.0463063,0.44525154 86.0012403,0.44525154 C85.8580804,0.443659104 85.7134872,0.443659104 85.5703273,0.48410697 L85.5252613,0.496527968 L85.5206433,0.498120404 L1.17131606,23.6569124 C0.491823758,23.8435459 0.0160437894,24.4547227 0.000398108919,25.159057 C-0.013615325,25.8635506 0.435770023,26.4933589 1.10761863,26.7080192 L32.471117,36.738453 L32.9922018,36.9048626 C33.1507685,36.9562982 33.3139932,36.9811402 33.4773771,36.9811402 C33.7759588,36.9811402 34.072948,36.8970596 34.3310819,36.7322425 L86.8456294,3.3625937 C87.1255796,3.18535561 87.312213,2.92419616 87.4349898,2.63946866 C87.484833,2.52608724 87.517478,2.41095414 87.5392943,2.28961054 C87.5533078,2.21189968 87.5657288,2.13259638 87.5673212,2.05170065 L87.5672416,2.05170065 Z" id="Path" fill="#75C4FF"></path>
            </g>
        </g>
    </g>
</svg>