<?xml version="1.0" encoding="UTF-8"?>
<svg width="68px" height="68px" viewBox="0 0 68 68" version="1.1" xmlns="http://www.w3.org/2000/svg" xmlns:xlink="http://www.w3.org/1999/xlink">
    <!-- Generator: Sketch 52.6 (67491) - http://www.bohemiancoding.com/sketch -->
    <title>Help</title>
    <desc>Created with Sketch.</desc>
    <g id="Symbols" stroke="none" stroke-width="1" fill="none" fill-rule="evenodd">
        <g id="Illustrations/Help" transform="translate(-11.000000, 0.000000)" fill-rule="nonzero">
            <g id="Help" transform="translate(11.000000, 0.000000)">
                <path d="M33.9410218,0 C15.2204198,0 0,15.2204198 0,33.9410218 C0,52.6616238 15.1673663,67.8820436 33.9410218,67.8820436 C52.6616238,67.8820436 67.8820436,52.6616238 67.8820436,33.9410218 C67.8820436,15.2204198 52.6614891,0 33.9410218,0 Z M33.9410218,50.911398 C24.5541941,50.911398 16.9705109,43.3277149 16.9705109,33.9408871 C16.9705109,24.5540594 24.5541941,16.9703762 33.9410218,16.9703762 C43.3278495,16.9703762 50.9115327,24.5540594 50.9115327,33.9408871 C50.9115327,43.3277149 43.3277149,50.911398 33.9410218,50.911398 Z" id="Shape" fill="#249AF3"></path>
                <path d="M33.9410218,12.8870099 C22.3268911,12.8870099 12.8870099,22.3268911 12.8870099,33.9410218 C12.8870099,45.5551525 22.3268911,54.9950337 33.9410218,54.9950337 C45.5551525,54.9950337 54.9950337,45.5551525 54.9950337,33.9410218 C54.9950337,22.3268911 45.5551525,12.8870099 33.9410218,12.8870099 Z M33.9410218,50.911398 C24.5541941,50.911398 16.9705109,43.3277149 16.9705109,33.9408871 C16.9705109,24.5540594 24.5541941,16.9703762 33.9410218,16.9703762 C43.3278495,16.9703762 50.9115327,24.5540594 50.9115327,33.9408871 C50.9115327,43.3277149 43.3277149,50.911398 33.9410218,50.911398 Z" id="Shape" fill="#63BAFC"></path>
                <path d="M26.0390178,48.9492277 C22.9631287,47.358297 20.4705584,44.8126733 18.8796277,41.7898376 L6.62912475,54.0933941 C8.64434851,56.7980436 11.0308119,59.2375604 13.7885149,61.2527842 L26.0390178,48.9492277 Z M41.7898376,18.8796277 C44.8657267,20.4705584 47.358297,22.9631287 48.9492277,26.0390178 L61.2527842,13.7885149 C59.2375604,11.0838653 56.7980436,8.64434851 54.0933941,6.62912475 L41.7898376,18.8796277 Z M6.62912475,13.7885149 L18.8796277,26.0390178 C20.4705584,22.9631287 22.9631287,20.4705584 26.0390178,18.8796277 L13.7885149,6.62912475 C11.0838653,8.64434851 8.64434851,11.0838653 6.62912475,13.7885149 Z M61.2527842,54.0933941 L49.0022812,41.8428911 C47.4113505,44.9187802 44.9187802,47.4113505 41.8428911,49.0022812 L54.0933941,61.2527842 C56.7980436,59.2375604 59.2375604,56.7980436 61.2527842,54.0933941 Z" id="Shape" fill="#D8EEFF"></path>
            </g>
        </g>
    </g>
</svg>