<?xml version="1.0" encoding="UTF-8"?>
<svg width="58px" height="68px" viewBox="0 0 58 68" version="1.1" xmlns="http://www.w3.org/2000/svg" xmlns:xlink="http://www.w3.org/1999/xlink">
    <!-- Generator: Sketch 52.6 (67491) - http://www.bohemiancoding.com/sketch -->
    <title>PayPal</title>
    <desc>Created with Sketch.</desc>
    <g id="Symbols" stroke="none" stroke-width="1" fill="none" fill-rule="evenodd">
        <g id="Illustrations/PayPal" transform="translate(-16.000000, 0.000000)">
            <g id="PayPal" transform="translate(16.000000, 0.000000)">
                <path d="M23.0147049,15.4723604 C23.3608219,15.307721 23.7462276,15.2160468 24.1503425,15.2160468 L40.6292484,15.2160468 C42.5805992,15.2160468 44.4009869,15.3432682 46.0642189,15.6108072 C46.541299,15.6875142 47.0034117,15.7754466 47.4524282,15.8764753 C47.9014449,15.9756331 48.337365,16.0878872 48.7601889,16.2113668 C48.9716007,16.2731065 49.1792709,16.3367172 49.3831991,16.4040697 C50.2007834,16.6772214 50.9622406,16.9952747 51.661958,17.3675843 C52.4870258,12.1047366 51.6563453,8.5257009 48.8107031,5.28342756 C45.6769421,1.71374633 40.0174633,0.183348406 32.7752012,0.183348406 L11.7537452,0.183348406 C10.2738616,0.183348406 9.01474449,1.26098802 8.78275263,2.72216257 L0.0306725631,58.2280863 C-0.143321333,59.3244349 0.704197322,60.3141421 1.81177137,60.3141421 L14.7902193,60.3141421 L21.5516595,17.4368077 C21.6901063,16.5574836 22.2551187,15.8371863 23.0147049,15.4723604 Z" id="Path" fill="#249AF3"></path>
                <path d="M51.4468044,18.5986378 C48.6759982,32.8305903 39.1905246,37.7529337 27.0764335,37.7529337 L20.9080692,37.7529337 C19.4281856,37.7529337 18.178423,38.8305732 17.9483021,40.2917478 L13.8940572,65.994201 C13.7425141,66.9521029 14.4833913,67.8202014 15.4525186,67.8202014 L26.3916833,67.8202014 C27.6863475,67.8202014 28.7883088,66.8772667 28.9903664,65.5994406 L29.0970076,65.0419118 L31.1587417,51.9755314 L31.2915758,51.2533632 C31.4936333,49.9755372 32.5955947,49.0326025 33.8902588,49.0326025 L35.5272982,49.0326025 C46.1240878,49.0326025 54.4215386,44.7276566 56.8462278,32.2768033 C57.8583857,27.0738245 57.3345333,22.7295897 54.6572723,19.6781484 C53.8453008,18.7539227 52.8368846,17.9905947 51.661958,17.3675843 C51.5983474,17.7698282 51.5291239,18.1776849 51.4468044,18.5986378 Z" id="Path" fill="#63BAFC"></path>
                <path d="M48.7620598,16.2113668 C48.3392359,16.0878872 47.9033158,15.9756331 47.4542991,15.8764753 C47.0052826,15.7773175 46.541299,15.6893851 46.0660898,15.6126781 C44.4009869,15.3432682 42.5824701,15.2160468 40.6292484,15.2160468 L24.1522134,15.2160468 C23.7462276,15.2160468 23.3608219,15.307721 23.0165758,15.4742313 C22.2551187,15.8390572 21.6919772,16.5574836 21.5535304,17.4386785 L18.0512017,39.6444156 L17.950173,40.2917478 C18.1802939,38.8305732 19.4300565,37.7529337 20.9099401,37.7529337 L27.0783044,37.7529337 C39.1923954,37.7529337 48.6778691,32.8324612 51.4486753,18.5986378 C51.5309948,18.1776849 51.6002183,17.7698282 51.6638289,17.3675843 C50.9622406,16.9971456 50.2026543,16.6772214 49.38507,16.4059406 C49.1811418,16.3385881 48.9734716,16.2731065 48.7620598,16.2113668" id="Path" fill="#187ECB"></path>
            </g>
        </g>
    </g>
</svg>