<?xml version="1.0" encoding="UTF-8"?>
<svg width="90px" height="66px" viewBox="0 0 90 66" version="1.1" xmlns="http://www.w3.org/2000/svg" xmlns:xlink="http://www.w3.org/1999/xlink">
    <!-- Generator: Sketch 52.6 (67491) - http://www.bohemiancoding.com/sketch -->
    <title>People</title>
    <desc>Created with Sketch.</desc>
    <g id="Symbols" stroke="none" stroke-width="1" fill="none" fill-rule="evenodd">
        <g id="Illustrations/People" transform="translate(0.000000, -1.000000)">
            <g id="People" transform="translate(0.000000, 1.000000)">
                <g id="Group-8" transform="translate(60.820312, 21.796875)">
                    <path d="M4.50228516,5.81765625 L4.50228516,6.83630859 C4.50228516,8.08453125 4.70355469,9.32449219 5.09818359,10.5085547 L7.40548828,17.4304687 L11.760293,17.4304687 L11.760293,1.46267578 L8.85708984,1.46267578 C6.45205078,1.46285156 4.50228516,3.41244141 4.50228516,5.81765625 Z" id="Path" fill="#249AF3"></path>
                    <path d="M24.3780469,8.83318359 L21.9216797,17.4306445 L10.3086914,7.26943359 C8.70521484,7.26943359 7.40548828,5.96953125 7.40548828,4.36623047 C7.40548828,1.96119141 9.35525391,0.0114257813 11.760293,0.0114257813 L21.9215039,0.0114257813 C23.5249805,0.0114257813 24.824707,1.31132813 24.824707,2.91462891 L24.824707,5.64310547 C24.8248828,6.721875 24.6744141,7.79554688 24.3780469,8.83318359 Z" id="Path" fill="#3AAAFF"></path>
                    <rect id="Rectangle" fill="#75C4FF" x="10.3078125" y="21.7863281" width="8.70960938" height="6.42462891"></rect>
                    <path d="M10.3086914,24.451875 C11.655,24.9989063 13.123125,25.306875 14.6634961,25.306875 C16.2038672,25.306875 17.6719922,24.9989063 19.0183008,24.451875 L19.0183008,21.7854492 L10.3086914,21.7854492 L10.3086914,24.451875 Z" id="Path" fill="#68B3EA"></path>
                    <path d="M26.0210742,27.307793 L19.0179492,25.3070508 L14.6634961,28.1967187 L10.3086914,25.306875 L3.30591797,27.307793 C1.43630859,27.8419922 0.147480469,29.5507617 0.147480469,31.4950781 L0.147480469,42.1080469 C0.147480469,42.9097852 0.79734375,43.5596484 1.59908203,43.5596484 L27.7280859,43.5596484 C28.5298242,43.5596484 29.1796875,42.9097852 29.1796875,42.1080469 L29.1796875,31.4950781 C29.1796875,29.5505859 27.8906836,27.8419922 26.0210742,27.307793 Z" id="Path" fill="#75C4FF"></path>
                    <path d="M14.6634961,23.2370508 C9.85324219,23.2370508 5.95388672,19.3375195 5.95388672,14.5274414 L5.95388672,12.8267578 C5.95388672,12.0568359 6.25974609,11.3183789 6.80414063,10.7738086 L9.43646484,8.14148437 C9.99386719,7.58408203 10.7560547,7.26363281 11.5439063,7.28841797 C16.1841797,7.43484375 20.2914844,8.42888672 22.5367383,10.6217578 C23.0864063,11.1585937 23.3732813,11.9095312 23.3732813,12.6776953 L23.3732813,14.5274414 C23.3732813,19.3376953 19.47375,23.2370508 14.6634961,23.2370508 Z" id="Path" fill="#75C4FF"></path>
                    <path d="M23.3732812,35.8205273 C23.3732812,34.6654687 23.8320703,33.5578711 24.64875,32.7411914 L28.385332,29.0046094 C28.8847266,29.718457 29.1796875,30.5778516 29.1796875,31.4952539 L29.1796875,42.1082227 C29.1796875,42.9099609 28.5298242,43.5598242 27.7280859,43.5598242 L23.3732812,43.5598242 L23.3732812,35.8205273 Z" id="Path" fill="#D8EEFF"></path>
                    <path d="M14.6634961,28.1968945 L12.2030859,30.0761719 C11.7792773,30.3999609 11.1665039,30.2702344 10.9103906,29.8023047 L8.70328125,25.7716406 L9.59167969,24.416543 C9.78873047,24.115957 10.2086719,24.0648047 10.472168,24.3091406 L14.6634961,28.1968945 Z" id="Path" fill="#D8EEFF"></path>
                    <path d="M14.6634961,28.1968945 L17.1239062,30.0763477 C17.5477148,30.4001367 18.1604883,30.2704102 18.4166016,29.8024805 L20.6237109,25.7718164 L19.7353125,24.4167187 C19.5382617,24.1161328 19.1183203,24.0649805 18.8548242,24.3093164 L14.6634961,28.1968945 Z" id="Path" fill="#D8EEFF"></path>
                </g>
                <g id="Group-10" transform="translate(0.000000, 22.324219)">
                    <path d="M25.9843359,22.1036133 C24.7438477,18.8168555 23.76,13.1667188 23.5474805,10.2250195 C23.1431836,4.62708984 18.9246094,0.0638085938 13.2219141,0.0638085938 C7.51921875,0.0638085938 3.30064453,4.62726563 2.89634766,10.2250195 C2.68382813,13.166543 1.69998047,18.8168555 0.459492188,22.1036133 C0.186152344,22.8281836 0.501679688,23.6271094 1.21517578,23.9505469 C2.54443359,24.5529492 5.37855469,25.7331445 8.79662109,26.1928125 L17.6470313,26.1928125 C21.0491016,25.7320898 23.9030859,24.5511914 25.2284766,23.9505469 C25.9421484,23.6271094 26.2576758,22.8281836 25.9843359,22.1036133 Z" id="Path" fill="#249AF3"></path>
                    <path d="M25.2286523,23.9507227 C25.9419727,23.6272852 26.2576758,22.8283594 25.9841602,22.1037891 C24.7438477,18.8170313 23.7598242,13.1668945 23.5474805,10.2251953 C23.1433594,4.62726563 18.9246094,0.063984375 13.2220898,0.063984375 C13.2076758,0.063984375 13.1934375,0.063984375 13.1790234,0.0641601563 C8.80330078,0.0819140625 7.25695313,6.04951172 11.0237695,8.27613281 C11.25,8.40990234 11.3950195,8.47423828 11.3950195,8.47423828 L14.6942578,26.1929883 L17.647207,26.1929883 C21.0492773,25.7319141 23.9032617,24.5511914 25.2286523,23.9507227 Z" id="Path" fill="#3AAAFF"></path>
                    <path d="M23.7216797,29.1072656 L19.0241016,26.7586523 C18.0404297,26.2668164 17.419043,25.2613477 17.4192187,24.1616602 L17.4195703,19.8066797 L8.70960937,19.8066797 L8.70960937,24.1618359 C8.70960937,25.2615234 8.08839844,26.2666406 7.10472656,26.7584766 L2.40714844,29.1072656 C0.931816406,29.8448438 -1.42108547e-14,31.3526953 -1.42108547e-14,33.0020508 L-1.42108547e-14,41.5805273 C-1.42108547e-14,42.3820898 0.649863281,43.0321289 1.45160156,43.0321289 L24.6774023,43.0321289 C25.4791406,43.0321289 26.1290039,42.3820898 26.1290039,41.5805273 L26.1290039,33.0022266 C26.1290039,31.3526953 25.1970117,29.8448438 23.7216797,29.1072656 Z" id="Path" fill="#75C4FF"></path>
                    <path d="M13.0645898,25.6129102 C14.6276367,25.6129102 16.1247656,25.2907031 17.4972656,24.7171289 C17.4612305,24.5341406 17.4192187,24.352207 17.4192187,24.1614844 L17.4195703,19.8065039 L8.70960938,19.8065039 L8.70960938,24.1616602 C8.70960938,24.3534375 8.66759766,24.53625 8.63121094,24.7199414 C10.0045898,25.2905273 11.5010156,25.6129102 13.0645898,25.6129102 Z" id="Path" fill="#68B3EA"></path>
                    <path d="M23.7216797,29.1072656 L20.3751562,27.4340039 C18.8233594,29.8302539 16.1319727,31.4194922 13.0645898,31.4194922 C9.99720703,31.4194922 7.30564453,29.8302539 5.75384766,27.4338281 L2.40732422,29.1072656 C0.931992187,29.8448437 -1.42108547e-14,31.3526953 -1.42108547e-14,33.0020508 L-1.42108547e-14,41.5805273 C-1.42108547e-14,42.3822656 0.649863281,43.0321289 1.45160156,43.0321289 L24.6774023,43.0321289 C25.4791406,43.0321289 26.1290039,42.3822656 26.1290039,41.5805273 L26.1290039,33.0022266 C26.1290039,31.3526953 25.1970117,29.8448437 23.7216797,29.1072656 Z" id="Path" fill="#75C4FF"></path>
                    <path d="M13.0645898,22.709707 C8.63630859,22.709707 4.98005859,19.4050195 4.42722656,15.1273828 C4.34707031,14.5075781 4.64501953,13.8999023 5.20294922,13.6184766 C5.87126953,13.2813281 6.84246094,12.7128516 7.77234375,11.8831641 C8.80787109,10.9592578 9.41537109,9.98490234 9.75849609,9.26964844 C10.0539844,8.65371094 10.7332031,8.3053125 11.3951953,8.47423828 C16.5062109,9.77783203 19.9858008,12.436875 21.2482617,13.5225 C21.587168,13.8139453 21.7824609,14.2437305 21.7476562,14.6895117 C21.395918,19.177207 17.6428125,22.709707 13.0645898,22.709707 Z" id="Path" fill="#75C4FF"></path>
                    <path d="M0.884882812,30.3853711 C0.325722656,31.1275195 -3.55271368e-14,32.0378906 -3.55271368e-14,33.0020508 L-3.55271368e-14,41.5805273 C-3.55271368e-14,42.3822656 0.649863281,43.0321289 1.45160156,43.0321289 L5.80640625,43.0321289 L5.80640625,35.7178711 C5.80640625,34.8359766 5.40544922,34.0017187 4.71673828,33.4508203 L0.884882812,30.3853711 Z" id="Path" fill="#D8EEFF"></path>
                </g>
                <g id="Group-13" transform="translate(20.214844, 0.000000)">
                    <path d="M45.7083984,49.4166797 L33.562793,45 L24.8531836,47.9033789 L16.1435742,45.0001758 L3.99796875,49.4168555 C1.70332031,50.2512891 0.17578125,52.4320312 0.17578125,54.8736328 L0.17578125,63.8711719 C0.17578125,64.6727344 0.825644531,65.3227734 1.62738281,65.3227734 L48.0789844,65.3227734 C48.8807227,65.3227734 49.5305859,64.6727344 49.5305859,63.8711719 L49.5305859,54.8736328 C49.5305859,52.4318555 48.0032227,50.2511133 45.7083984,49.4166797 Z" id="Path" fill="#75C4FF"></path>
                    <g id="Group" transform="translate(49.218750, 45.878906)"></g>
                    <path d="M47.9000391,50.9510742 C48.8801953,52.003125 49.4625586,53.4042773 49.4625586,54.907207 L49.4625586,63.9047461 C49.4625586,64.7064844 48.8126953,65.3563477 48.010957,65.3563477 L40.7529492,65.3563477 L40.7529492,60.5033789 C40.7529492,58.9633594 41.364668,57.4864453 42.4536328,56.3976562 L47.9000391,50.9510742 Z" id="Path" fill="#D8EEFF"></path>
                    <path d="M40.7529492,15.0976758 L40.7529492,2.93712891 C40.7529492,1.33365234 39.4530469,0.0339257812 37.8497461,0.0339257812 L20.4303516,0.0339257812 C14.0167969,0.0339257812 8.81736328,5.23318359 8.81736328,11.6469141 L8.81736328,15.0976758 C8.81736328,16.6579102 9.06890625,18.2079492 9.56232422,19.6880273 L10.0455469,21.1376953 C10.1935547,21.5817188 10.2689648,22.0466602 10.2689648,22.5147656 L10.2689648,23.2597266 L39.3011719,23.2597266 L39.3011719,22.5147656 C39.3011719,22.0466602 39.376582,21.5817188 39.5245898,21.1376953 L40.0078125,19.6880273 C40.5014063,18.2077734 40.7529492,16.6577344 40.7529492,15.0976758 Z" id="Path" fill="#249AF3"></path>
                    <path d="M16.0755469,5.93103516 C16.0755469,9.18791016 18.7157812,11.8281445 21.9726562,11.8281445 L22.7891602,11.8281445 L23.1832617,23.2595508 L39.3011719,23.2595508 L39.3011719,22.5145898 C39.3011719,22.0464844 39.376582,21.581543 39.5245898,21.1375195 L40.0078125,19.6878516 C40.5012305,18.2077734 40.7527734,16.6577344 40.7527734,15.0975 L40.7527734,2.93712891 C40.7527734,1.33365234 39.4528711,0.0339257812 37.8495703,0.0339257812 L21.9726562,0.0339257812 C18.7157812,0.0339257812 16.0755469,2.67416016 16.0755469,5.93103516 Z" id="Path" fill="#3AAAFF"></path>
                    <rect id="Rectangle" fill="#75C4FF" x="16.0751953" y="34.8732422" width="17.4199219" height="13.0640625"></rect>
                    <path d="M16.0755469,39.7810547 C18.6398437,41.266582 21.6086133,42.1305469 24.7851562,42.1305469 C27.9616992,42.1305469 30.9306445,41.266582 33.4947656,39.7810547 L33.4947656,34.8725391 L16.0753711,34.8725391 L16.0755469,39.7810547 Z" id="Path" fill="#68B3EA"></path>
                    <g id="Group" transform="translate(13.007812, 42.539062)" fill="#D8EEFF">
                        <path d="M11.7773437,5.39806641 L7.14761719,10.027793 C6.52535156,10.6500586 5.49685547,10.5799219 4.96494141,9.87890625 L0.16453125,3.55359375 L1.42013672,0.907558594 C1.79068359,0.126738281 2.75712891,-0.159433594 3.49294922,0.294082031 L11.7773437,5.39806641 Z" id="Path"></path>
                        <path d="M11.7773437,5.39806641 L16.4070703,10.027793 C17.0293359,10.6500586 18.057832,10.5799219 18.5897461,9.87890625 L23.3901562,3.55359375 L22.1345508,0.907558594 C21.7640039,0.126738281 20.7975586,-0.159433594 20.0617383,0.294082031 L11.7773437,5.39806641 Z" id="Path"></path>
                    </g>
                    <path d="M24.7851562,39.2275195 C16.768125,39.2275195 10.2689648,32.7283594 10.2689648,24.7113281 L10.2689648,23.0106445 C10.2689648,22.2407227 10.5748242,21.5022656 11.1192187,20.9576953 L12.3217383,19.7551758 C12.8661328,19.2107812 13.1719922,18.4723242 13.1719922,17.7022266 L13.1719922,14.2224609 C13.1719922,13.5502734 13.6233984,12.9663281 14.2774805,12.8118164 C17.7106641,12.0009375 28.3941211,10.0801758 35.6646094,15.4274414 C36.1367578,15.7746094 36.397793,16.3450195 36.397793,16.9310742 L36.397793,17.7022266 C36.397793,18.4721484 36.7036523,19.2106055 37.2480469,19.7551758 L38.4505664,20.9576953 C38.9949609,21.5020898 39.3008203,22.2405469 39.3008203,23.0106445 L39.3008203,24.7113281 C39.3013477,32.7283594 32.8021875,39.2275195 24.7851562,39.2275195 Z" id="Path" fill="#75C4FF"></path>
                    <path d="M1.67027344,50.9510742 C0.690117187,52.003125 0.107753906,53.4042773 0.107753906,54.907207 L0.107753906,63.9047461 C0.107753906,64.7064844 0.757617187,65.3563477 1.55935547,65.3563477 L8.81736328,65.3563477 L8.81736328,60.5033789 C8.81736328,58.9633594 8.20564453,57.4864453 7.11667969,56.3976562 L1.67027344,50.9510742 Z" id="Path" fill="#D8EEFF"></path>
                </g>
            </g>
        </g>
    </g>
</svg>