<?xml version="1.0" encoding="UTF-8"?>
<svg width="58px" height="58px" viewBox="0 0 58 58" version="1.1" xmlns="http://www.w3.org/2000/svg" xmlns:xlink="http://www.w3.org/1999/xlink">
    <!-- Generator: Sketch 52.6 (67491) - http://www.bohemiancoding.com/sketch -->
    <title>Success</title>
    <desc>Created with Sketch.</desc>
    <g id="Symbols" stroke="none" stroke-width="1" fill="none" fill-rule="evenodd">
        <g id="Illustrations/Success" transform="translate(-15.000000, -4.000000)">
            <g id="Success" transform="translate(15.000000, 4.000000)">
                <path d="M28.7196558,4.7392902e-07 C42.089269,0.00480863682 53.6879131,9.23628445 56.6897453,22.2645251 C59.6915776,35.2927658 53.3016657,48.6703924 41.2831175,54.5234045 C29.2629667,60.3780196 14.7923079,57.1598245 6.3862159,46.7647979 C-2.02147912,36.3681687 -2.13847515,21.5449189 6.10093745,11.0168696 C11.5452643,4.06120896 19.8872493,-0.00160211027 28.7196558,4.7392902e-07 Z" id="Path" fill="#54DB88"></path>
                <path d="M50.4558911,47.4628873 C47.968946,50.3490723 44.8777928,52.7728039 41.2831175,54.5234045 C29.2629667,60.3780196 14.7923079,57.1598245 6.3862159,46.7647979 C-2.02147912,36.3681687 -2.13847515,21.5449189 6.10093745,11.0168696 C7.26445053,9.53036768 8.56030671,8.17598929 9.96500965,6.96516967 C9.66951621,7.30795358 9.38138247,7.65857358 9.10093745,8.01686956 C0.861524852,18.5449189 0.978520884,33.3681687 9.3862159,43.7647979 C17.7923079,54.1598245 32.2629667,57.3780196 44.2831175,51.5234045 C46.5492226,50.4198152 48.6152221,49.0487158 50.4558911,47.4628873 Z" id="Combined-Shape" fill="#44C776"></path>
                <path d="M23.8546402,39.0246887 C23.0132294,39.0246887 22.213489,38.6576735 21.6685755,38.0165988 L13.7625217,28.7562744 C13.0765714,27.9789715 12.8618116,26.89235 13.2031837,25.9115053 C13.5445563,24.932264 14.3875694,24.2126578 15.4084807,24.0299513 C16.4293925,23.8456422 17.4695361,24.2270818 18.1298431,25.0268222 L24.2152447,32.1539704 L40.4584752,18.9430236 C41.2502023,18.2698948 42.3448374,18.0791754 43.319271,18.4413824 C44.2937046,18.8051924 44.9956816,19.6674377 45.1543472,20.6947602 C45.3130133,21.7236849 44.9027255,22.7558152 44.0837525,23.3968899 L25.6656761,38.3804088 C25.1544189,38.797107 24.5149472,39.0246887 23.8546402,39.0246887 Z" id="Path" fill="#FFFFFF"></path>
            </g>
        </g>
    </g>
</svg>