<?xml version="1.0" encoding="UTF-8"?>
<svg width="63px" height="67px" viewBox="0 0 63 67" version="1.1" xmlns="http://www.w3.org/2000/svg" xmlns:xlink="http://www.w3.org/1999/xlink">
    <!-- Generator: Sketch 52.6 (67491) - http://www.bohemiancoding.com/sketch -->
    <title>Verification</title>
    <desc>Created with Sketch.</desc>
    <g id="Symbols" stroke="none" stroke-width="1" fill="none" fill-rule="evenodd">
        <g id="Illustrations/Verification" transform="translate(-13.000000, 0.000000)">
            <g id="Verification" transform="translate(13.000000, 0.000000)">
                <path d="M62.9531891,26.513461 L62.9531891,60.6364252 C62.951346,64.1100352 60.1357193,66.9256621 56.6621093,66.9275051 L6.33347084,66.9275051 C4.89954706,66.9293482 3.50801431,66.4390864 2.39233062,65.5390442 L0.955949237,63.9048378 C0.356945016,62.9200136 0.0411623779,61.7889709 0.0423910258,60.6364252 L0.0423910258,26.5374212 L12.6245507,37.1910945 L27.4417639,49.7370066 C29.7892459,51.7250862 33.2302945,51.7238575 35.5759335,49.7339349 L50.3710295,37.1849509 L62.9531891,26.513461 Z" id="Path" fill="#3FAAFA"></path>
                <polygon id="Path" fill="#2192E7" points="62.9531891 26.513461 50.3710295 37.1849509 50.3710295 15.8597877"></polygon>
                <path d="M50.3710295,15.8597877 L50.3710295,37.1849509 L35.5759335,49.7339349 C33.2302945,51.7238575 29.7892459,51.7250862 27.4417639,49.7370066 L12.6245507,37.1910945 L12.6245507,4.98740105 C12.6251651,2.2332105 14.8577612,0.000614363263 17.6119517,-2.84217094e-14 L36.6375532,-2.84217094e-14 L36.8906709,0.0251888545 L36.8906709,8.49295775 C36.8906709,11.2471483 39.1238812,13.4803588 41.8780718,13.4803588 L50.3710295,13.4803588 L50.3710295,15.8597877 Z" id="Path" fill="#D8EEFF"></path>
                <g id="Group" transform="translate(21.000000, 17.736053)">
                    <path d="M10.8936625,1.7976618e-07 C15.9648952,0.00182396569 20.3643808,3.50341824 21.5030068,8.4451647 C22.6416329,13.3869112 20.2178732,18.4611833 15.6591135,20.6812914 C11.099746,22.9020074 5.61087542,21.6813128 2.42235775,17.7383716 C-0.766767941,13.7948226 -0.811145746,8.1722106 2.31414869,4.17881259 C4.37923819,1.54045857 7.54343938,-0.000607697 10.8936625,1.7976618e-07 Z" id="Path" fill="#54DB88"></path>
                    <path d="M19.1384414,18.0031642 C18.1951175,19.097924 17.0226111,20.0172704 15.6591135,20.6812914 C11.099746,22.9020074 5.61087542,21.6813128 2.42235775,17.7383716 C-0.766767941,13.7948226 -0.811145746,8.1722106 2.31414869,4.17881259 C2.75548123,3.61496705 3.24701289,3.10123732 3.77983125,2.64196091 C3.66774753,2.77198239 3.55845542,2.90497619 3.45207972,3.04088156 C0.326785289,7.03427957 0.371163094,12.6568916 3.56028879,16.6004406 C6.74880645,20.5433817 12.237677,21.7640764 16.7970446,19.5433603 C17.6566017,19.1247575 18.4402567,18.6046853 19.1384414,18.0031642 Z" id="Combined-Shape" fill="#44C776"></path>
                    <path d="M9.04831182,14.8024681 C8.72915597,14.8024681 8.42580617,14.6632555 8.21911484,14.4200892 L5.22026687,10.9075524 C4.9600788,10.6127133 4.87861818,10.2005466 5.00810418,9.82850202 C5.13759033,9.45706566 5.4573539,9.18411156 5.84459614,9.1148091 C6.23183854,9.04489876 6.62637578,9.18958276 6.87683703,9.49293257 L9.1850928,12.1963336 L15.3463182,7.18528483 C15.6466284,6.92996009 16.0618349,6.85761824 16.4314476,6.99500711 C16.8010603,7.13300401 17.0673275,7.46006256 17.127511,7.84973662 C17.1876947,8.24001841 17.0320683,8.6315161 16.7214234,8.87468237 L9.73525645,14.5580861 C9.54133131,14.716144 9.29877307,14.8024681 9.04831182,14.8024681 Z" id="Path" fill="#FFFFFF"></path>
                </g>
                <path d="M50.3710295,13.452098 L50.3710295,13.4803588 L41.8780718,13.4803588 C39.1238812,13.4803588 36.8906709,11.2471483 36.8906709,8.49295775 L36.8906709,0.0251888545 L36.9177029,0.0282607887 L50.3710295,13.452098 Z" id="Path" fill="#2192E7"></path>
                <polygon id="Path" fill="#2192E7" points="12.6245507 15.8659312 12.6245507 37.1910945 0.0423910258 26.5374212"></polygon>
            </g>
        </g>
    </g>
</svg>