<?xml version="1.0" encoding="UTF-8"?>
<svg width="68px" height="68px" viewBox="0 0 68 68" version="1.1" xmlns="http://www.w3.org/2000/svg" xmlns:xlink="http://www.w3.org/1999/xlink">
    <!-- Generator: Sketch 52.6 (67491) - http://www.bohemiancoding.com/sketch -->
    <title>Bank Account</title>
    <desc>Created with Sketch.</desc>
    <g id="Symbols" stroke="none" stroke-width="1" fill="none" fill-rule="evenodd">
        <g id="Illustrations/Bank-Account" transform="translate(-11.000000, 0.000000)">
            <g id="Bank-Account" transform="translate(11.000000, 0.000000)">
                <path d="M64.8821277,61.804766 L3.09038298,61.804766 C1.38314894,61.804766 0,63.1879149 0,64.8965957 C0,66.602383 1.38314894,67.9855319 3.09038298,67.9855319 L64.8806809,67.9855319 C66.5879149,67.9855319 67.9710638,66.602383 67.9710638,64.8965957 C67.969617,63.1879149 66.5864681,61.804766 64.8821277,61.804766 Z" id="Path" fill="#63BAFC"></path>
                <path d="M6.95191489,53.7706383 C5.24468085,53.7706383 3.86153191,55.1537872 3.86153191,56.8610213 C3.86153191,58.5682553 5.24468085,59.9528511 6.95191489,59.9528511 L61.0191489,59.9528511 C62.726383,59.9528511 64.1095319,58.5682553 64.1095319,56.8610213 C64.1095319,55.1537872 62.726383,53.7706383 61.0191489,53.7706383 L60.248,53.7706383 L60.248,25.9629787 L61.0191489,25.9629787 C61.8742128,25.9629787 62.5628936,25.2714043 62.5628936,24.419234 C62.5628936,23.5670638 61.8713191,22.8754894 61.0191489,22.8754894 L6.95191489,22.8754894 C6.09829787,22.8754894 5.40817021,23.5670638 5.40817021,24.419234 C5.40817021,25.2714043 6.09974468,25.9629787 6.95191489,25.9629787 L7.72451064,25.9629787 L7.72451064,53.7691915 L6.95191489,53.7691915 L6.95191489,53.7706383 Z M54.067234,25.9629787 L54.067234,53.7691915 L44.7989787,53.7691915 L44.7989787,25.9629787 L54.067234,25.9629787 Z M38.6182128,25.9629787 L38.6182128,53.7691915 L29.3499574,53.7691915 L29.3499574,25.9629787 L38.6182128,25.9629787 Z M13.902383,25.9629787 L23.1706383,25.9629787 L23.1706383,53.7691915 L13.902383,53.7691915 L13.902383,25.9629787 Z" id="Shape" fill="#249AF3" fill-rule="nonzero"></path>
                <path d="M3.09038298,20.097617 L64.8806809,20.097617 C64.8908085,20.097617 64.902383,20.097617 64.9110638,20.097617 C66.6197447,20.097617 68.0014468,18.7144681 68.0014468,17.007234 C68.0014468,15.6501277 67.1275745,14.4999149 65.9137021,14.083234 L35.2558298,0.287914894 C34.4499574,-0.073787234 33.5283404,-0.073787234 32.7210213,0.287914894 L1.82297872,14.1902979 C0.493361702,14.7892766 -0.237276596,16.2331915 0.0694468085,17.6568511 C0.374723404,19.0805106 1.63344681,20.097617 3.09038298,20.097617 Z" id="Path" fill="#39AAFF"></path>
            </g>
        </g>
    </g>
</svg>