<?xml version="1.0" encoding="UTF-8"?>
<svg width="86px" height="68px" viewBox="0 0 86 68" version="1.1" xmlns="http://www.w3.org/2000/svg" xmlns:xlink="http://www.w3.org/1999/xlink">
    <!-- Generator: Sketch 52.6 (67491) - http://www.bohemiancoding.com/sketch -->
    <title>Credit Card</title>
    <desc>Created with Sketch.</desc>
    <g id="Symbols" stroke="none" stroke-width="1" fill="none" fill-rule="evenodd">
        <g id="Illustrations/Credit-Card" transform="translate(-2.000000, 0.000000)">
            <g id="Credit-Card" transform="translate(2.000000, 0.000000)">
                <g id="Group-7-Copy" transform="translate(13.600000, 0.000000)">
                    <g id="Group-2">
                        <g id="credit-card"></g>
                        <path d="M0,50 C0,53.3125 2.6875,56 6,56 L66,56 C69.3125,56 72,53.3125 72,50 L72,28 L0,28 L0,50 Z" id="Path" fill="#249AF3" fill-rule="nonzero"></path>
                        <path d="M24,41.5 C24,40.675 24.675,40 25.5,40 L42.5,40 C43.325,40 44,40.675 44,41.5 L44,46.5 C44,47.325 43.325,48 42.5,48 L25.5,48 C24.675,48 24,47.325 24,46.5 L24,41.5 Z" id="Path" fill="#D8EEFF" fill-rule="nonzero"></path>
                        <path d="M8,41.5 C8,40.675 8.675,40 9.5,40 L18.5,40 C19.325,40 20,40.675 20,41.5 L20,46.5 C20,47.325 19.325,48 18.5,48 L9.5,48 C8.675,48 8,47.325 8,46.5 L8,41.5 Z" id="Path" fill="#D8EEFF" fill-rule="nonzero"></path>
                        <path d="M72,6 L72,12 L0,12 L0,6 C0,2.6875 2.6875,7.63833441e-14 6,7.63833441e-14 L66,7.63833441e-14 C69.3125,7.63833441e-14 72,2.6875 72,6 Z" id="Path" fill="#249AF3" fill-rule="nonzero"></path>
                    </g>
                    <rect id="Rectangle" fill="#63BAFC" x="0" y="12" width="72" height="16"></rect>
                </g>
                <path d="M4.8,36 L4.8,20 L4.8,14 C4.8,10.6875 7.4875,8 10.8,8 L70.8,8 C74.1125,8 76.8,10.6875 76.8,14 L76.8,20 L76.8,36 L76.8,58 C76.8,61.3125 74.1125,64 70.8,64 L10.8,64 C7.4875,64 4.8,61.3125 4.8,58 L4.8,36 Z" id="Combined-Shape" fill="#FFFFFF" fill-rule="nonzero"></path>
                <g id="Group-7" transform="translate(0.000000, 12.000000)">
                    <g id="Group-2">
                        <g id="credit-card"></g>
                        <path d="M0,50 C0,53.3125 2.6875,56 6,56 L66,56 C69.3125,56 72,53.3125 72,50 L72,28 L0,28 L0,50 Z" id="Path" fill="#39AAFF" fill-rule="nonzero"></path>
                        <path d="M24,41.5 C24,40.675 24.675,40 25.5,40 L42.5,40 C43.325,40 44,40.675 44,41.5 L44,46.5 C44,47.325 43.325,48 42.5,48 L25.5,48 C24.675,48 24,47.325 24,46.5 L24,41.5 Z" id="Path" fill="#D8EEFF" fill-rule="nonzero"></path>
                        <path d="M8,41.5 C8,40.675 8.675,40 9.5,40 L18.5,40 C19.325,40 20,40.675 20,41.5 L20,46.5 C20,47.325 19.325,48 18.5,48 L9.5,48 C8.675,48 8,47.325 8,46.5 L8,41.5 Z" id="Path" fill="#D8EEFF" fill-rule="nonzero"></path>
                        <path d="M72,6 L72,12 L0,12 L0,6 C0,2.6875 2.6875,0 6,0 L66,0 C69.3125,0 72,2.6875 72,6 Z" id="Path" fill="#39AAFF" fill-rule="nonzero"></path>
                    </g>
                    <rect id="Rectangle" fill="#D8EEFF" x="0" y="12" width="72" height="16"></rect>
                </g>
            </g>
        </g>
    </g>
</svg>