<?xml version="1.0" encoding="UTF-8"?>
<svg width="90px" height="64px" viewBox="0 0 90 64" version="1.1" xmlns="http://www.w3.org/2000/svg" xmlns:xlink="http://www.w3.org/1999/xlink">
    <!-- Generator: Sketch 52.6 (67491) - http://www.bohemiancoding.com/sketch -->
    <title>Delivery-3</title>
    <desc>Created with Sketch.</desc>
    <g id="Symbols" stroke="none" stroke-width="1" fill="none" fill-rule="evenodd">
        <g id="Illustrations/Delivery-3" transform="translate(0.000000, -2.000000)" fill-rule="nonzero">
            <g id="Delivery-3" transform="translate(0.000000, 2.000000)">
                <path d="M79.3760294,59.3276471 C78.0472059,61.9035294 75.3910294,63.5219118 72.4925,63.5219118 L9.84911765,63.5219118 C8.69470588,63.5219118 7.94588235,62.3047059 8.46647059,61.2741176 L8.49279412,61.2219118 C9.3425,59.5397059 8.83838235,57.4891176 7.30544118,56.3930882 L7.21882353,56.3310294 C3.66044118,53.7861765 1.54911765,49.6802941 1.54911765,45.3055882 L1.54911765,41.2848529 C1.54911765,40.7325682 1.9968329,40.2848529 2.54911765,40.2848529 L57.3179412,40.2848529 L57.3179412,40.2538235 C57.3179412,38.5597059 58.6911765,37.1866176 60.385,37.1866176 L88.411007,37.1866176 C88.9632917,37.1866176 89.411007,37.6343329 89.411007,38.1866176 C89.411007,38.3363704 89.3773734,38.4842111 89.3125892,38.6192255 L79.3760294,59.3276471 Z" id="Path" fill="#249AF3"></path>
                <path d="M20.7472449,50.3227491 C20.7472449,48.9045138 19.5978331,47.755102 18.1797449,47.755102 C16.7616567,47.755102 15.6122449,48.9045138 15.6122449,50.3227491 C15.6122449,51.7408373 16.7618037,52.8902491 18.1797449,52.8902491 C19.5976861,52.8902491 20.7472449,51.7408373 20.7472449,50.3227491 Z" id="Path" fill="#D8EEFF"></path>
                <path d="M30.8494328,50.3227491 C30.8494328,48.9045138 29.6998739,47.755102 28.2817857,47.755102 C26.8636975,47.755102 25.7142857,48.9045138 25.7142857,50.3227491 C25.7142857,51.7408373 26.8638445,52.8902491 28.2817857,52.8902491 C29.6998739,52.8902491 30.8494328,51.7408373 30.8494328,50.3227491 Z" id="Path" fill="#D8EEFF"></path>
                <path d="M41.8696939,50.3227491 C41.8696939,48.9045138 40.7202821,47.755102 39.3021939,47.755102 C37.8841056,47.755102 36.7346939,48.9045138 36.7346939,50.3227491 C36.7346939,51.7408373 37.8842527,52.8902491 39.3021939,52.8902491 C40.7202821,52.8902491 41.8696939,51.7408373 41.8696939,50.3227491 Z" id="Path" fill="#D8EEFF"></path>
                <path d="M54.2195588,18.5970588 L43.3757353,18.5970588 C42.5201471,18.5970588 41.8266176,19.2905882 41.8266176,20.1461765 L41.8266176,37.1866176 C41.8266176,38.0422059 42.5201471,38.7358824 43.3757353,38.7358824 L54.2195588,38.7358824 C55.075,38.7358824 55.7686765,38.0422059 55.7686765,37.1866176 L55.7686765,20.1461765 C55.7688235,19.2905882 55.0751471,18.5970588 54.2195588,18.5970588 Z" id="Path" fill="#63BAFC"></path>
                <path d="M72.8091176,24.7935294 L60.4161765,24.7935294 C59.5607353,24.7935294 58.8670588,25.4870588 58.8670588,26.3426471 L58.8670588,32.5389706 C58.8670588,33.3945588 59.5607353,34.0882353 60.4161765,34.0882353 L72.8091176,34.0882353 C73.6647059,34.0882353 74.3582353,33.3945588 74.3582353,32.5389706 L74.3582353,26.3426471 C74.3582353,25.4870588 73.6647059,24.7935294 72.8091176,24.7935294 Z" id="Path" fill="#63BAFC"></path>
                <path d="M24.7860294,38.7355882 L37.1789706,38.7355882 C38.0345588,38.7355882 38.7280882,38.0419118 38.7280882,37.1866176 L38.7280882,24.7935294 C38.7280882,23.9379412 38.0345588,23.2444118 37.1789706,23.2444118 L24.7860294,23.2444118 C23.9304412,23.2444118 23.2369118,23.9379412 23.2369118,24.7935294 L23.2369118,37.1866176 C23.2370588,38.0420588 23.9305882,38.7355882 24.7860294,38.7355882 Z" id="Path" fill="#63BAFC"></path>
                <path d="M22.8865382,16.3883831 L20.1388235,18.5970588 L20.1388235,38.7355882 L4.64735294,38.7355882 L4.64735294,18.5970588 L1.54919118,18.5970588 C0.693596515,18.5970588 2.85264896e-14,17.9034623 2.84217094e-14,17.0478676 L2.84217094e-14,17.0478676 C2.64171275e-14,16.192273 0.693596515,15.4986765 1.54919118,15.4986765 L10.8438235,15.4986765 L10.8438235,11.0066176 L7.74323529,11.0066176 C7.24390491,11.0066176 6.83911765,10.6018304 6.83911765,10.1025 L6.83911765,10.1025 C6.83911765,9.60316961 7.24390491,9.19838235 7.74323529,9.19838235 L10.8438235,9.19838235 L10.8438235,0.782058824 C10.8438235,0.354281797 11.1906053,0.0075 11.6183824,0.0075 L11.6183824,0.0075 C12.0461594,0.0075 12.3929412,0.354281797 12.3929412,0.782058824 L12.3929412,9.19838235 L15.4936765,9.19838235 C15.9930069,9.19838235 16.3977941,9.60316961 16.3977941,10.1025 L16.3977941,10.1025 C16.3977941,10.6018304 15.9930069,11.0066176 15.4936765,11.0066176 L12.3929412,11.0066176 L12.3929412,15.4986765 L22.5732831,15.4986765 C22.8494255,15.4986765 23.0732831,15.7225341 23.0732831,15.9986765 C23.0732831,16.1501605 23.0046068,16.2934768 22.8865382,16.3883831 Z" id="Path" fill="#249AF3"></path>
                <path d="M16.3401471,28.2444118 L13.2989706,28.2444118 C12.7466858,28.2444118 12.2989706,28.692127 12.2989706,29.2444118 L12.2989706,31.8704412 C12.2989706,32.4227259 12.7466858,32.8704412 13.2989706,32.8704412 L16.3401471,32.8704412 C16.8924318,32.8704412 17.3401471,32.4227259 17.3401471,31.8704412 L17.3401471,29.2444118 C17.3401471,28.692127 16.8924318,28.2444118 16.3401471,28.2444118 Z" id="Path" fill="#D8EEFF"></path>
                <path d="M16.3401471,20.8310294 L13.2989706,20.8310294 C12.7466858,20.8310294 12.2989706,21.2787447 12.2989706,21.8310294 L12.2989706,24.4572059 C12.2989706,25.0094906 12.7466858,25.4572059 13.2989706,25.4572059 L16.3401471,25.4572059 C16.8924318,25.4572059 17.3401471,25.0094906 17.3401471,24.4572059 L17.3401471,21.8310294 C17.3401471,21.2787447 16.8924318,20.8310294 16.3401471,20.8310294 Z" id="Path" fill="#D8EEFF"></path>
            </g>
        </g>
    </g>
</svg>