<?xml version="1.0" encoding="UTF-8"?>
<svg width="81px" height="67px" viewBox="0 0 81 67" version="1.1" xmlns="http://www.w3.org/2000/svg" xmlns:xlink="http://www.w3.org/1999/xlink">
    <!-- Generator: Sketch 52.6 (67491) - http://www.bohemiancoding.com/sketch -->
    <title>Folder</title>
    <desc>Created with Sketch.</desc>
    <g id="Symbols" stroke="none" stroke-width="1" fill="none" fill-rule="evenodd">
        <g id="Illustrations/Folder" transform="translate(-5.000000, -1.000000)">
            <g id="Folder" transform="translate(5.000000, 1.000000)">
                <path d="M64.6605833,66.3020833 L2.18447917,66.3020833 C0.746770833,66.3020833 -0.298708333,64.9369583 0.0767708333,63.5481042 L14.2668125,24.6448333 C14.5236458,23.692875 15.3876667,23.03125 16.3745208,23.03125 L78.850625,23.03125 C80.2883333,23.03125 80.9583333,24.40475 80.9583333,25.7852292 L66.7682917,64.6885 C66.5114583,65.6404583 65.6474375,66.3020833 64.6605833,66.3020833 Z" id="Path" fill="#3FAAFA"></path>
                <path d="M70.16575,10.46875 L34.8958333,10.46875 L27.9166667,0.697916667 L2.41758333,0.697916667 C1.08316667,0.697916667 0,1.7796875 0,3.1155 L0,62.7566667 C0.0963125,62.7594583 0.192625,62.7650417 0.286145833,62.770625 L14.2654167,24.6448333 C14.52225,23.6914792 15.3862708,23.03125 16.373125,23.03125 L72.5833333,23.03125 L72.5833333,12.8863333 C72.5833333,11.5505208 71.5001667,10.46875 70.16575,10.46875 Z" id="Path" fill="#2192E7"></path>
            </g>
        </g>
    </g>
</svg>