<?xml version="1.0" encoding="UTF-8"?>
<svg width="52px" height="68px" viewBox="0 0 52 68" version="1.1" xmlns="http://www.w3.org/2000/svg" xmlns:xlink="http://www.w3.org/1999/xlink">
    <!-- Generator: Sketch 52.6 (67491) - http://www.bohemiancoding.com/sketch -->
    <title>Person</title>
    <desc>Created with Sketch.</desc>
    <g id="Symbols" stroke="none" stroke-width="1" fill="none" fill-rule="evenodd">
        <g id="Illustrations/Person" transform="translate(-19.000000, 0.000000)">
            <g id="Person" transform="translate(19.000000, 0.000000)">
                <g id="Group-13" transform="translate(0.221354, 0.000000)">
                    <path d="M47.0935014,50.9141548 L34.5798473,46.3636364 L25.6063104,49.3549964 L16.6327734,46.3638175 L4.11911932,50.9143359 C1.75493608,51.7740554 0.181107955,54.0208807 0.181107955,56.5364702 L0.181107955,65.8066619 C0.181107955,66.6325142 0.850664063,67.3022514 1.67669744,67.3022514 L49.5359233,67.3022514 C50.3619567,67.3022514 51.0315128,66.6325142 51.0315128,65.8066619 L51.0315128,56.5364702 C51.0315128,54.0206996 49.4578658,51.7738743 47.0935014,50.9141548 Z" id="Path" fill="#75C4FF"></path>
                    <path d="M49.3515554,52.4950462 C50.3614134,53.5789773 50.961424,55.0225888 50.961424,56.5710618 L50.961424,65.8412536 C50.961424,66.6672869 50.2918679,67.336843 49.4658345,67.336843 L41.9878871,67.336843 L41.9878871,62.3368146 C41.9878871,60.7501278 42.6181428,59.2284588 43.7401065,58.1066761 L49.3515554,52.4950462 Z" id="Path" fill="#D8EEFF"></path>
                    <path d="M41.9878871,15.5551811 L41.9878871,3.02613281 C41.9878871,1.37406605 40.6485937,0.0349538352 38.9967081,0.0349538352 L21.0494531,0.0349538352 C14.4415483,0.0349538352 9.08455611,5.39176491 9.08455611,11.9998509 L9.08455611,15.5551811 C9.08455611,17.1626953 9.34372159,18.7597053 9.85209162,20.2846342 L10.3499574,21.7782315 C10.5024503,22.2357102 10.5801456,22.7147408 10.5801456,23.1970312 L10.5801456,23.9645668 L40.4921165,23.9645668 L40.4921165,23.1970312 C40.4921165,22.7147408 40.5698118,22.2357102 40.7223047,21.7782315 L41.2201705,20.2846342 C41.7287216,18.7595241 41.9878871,17.1625142 41.9878871,15.5551811 Z" id="Path" fill="#249AF3"></path>
                    <path d="M16.5626847,6.11076349 C16.5626847,9.46633168 19.2829261,12.1865732 22.6384943,12.1865732 L23.4797408,12.1865732 L23.8857848,23.9643857 L40.4921165,23.9643857 L40.4921165,23.1968501 C40.4921165,22.7145597 40.5698118,22.2355291 40.7223047,21.7780504 L41.2201705,20.2844531 C41.7285405,18.7595241 41.987706,17.1625142 41.987706,15.555 L41.987706,3.02613281 C41.987706,1.37406605 40.6484126,0.0349538352 38.996527,0.0349538352 L22.6384943,0.0349538352 C19.2829261,0.0349538352 16.5626847,2.75519531 16.5626847,6.11076349 Z" id="Path" fill="#3AAAFF"></path>
                    <rect id="Rectangle" fill="#75C4FF" x="16.5623224" y="35.9300071" width="17.9477983" height="13.4599432"></rect>
                    <path d="M16.5626847,40.9865412 C19.2046875,42.5170845 22.2634197,43.4072301 25.5362216,43.4072301 C28.8090234,43.4072301 31.8679368,42.5170845 34.5097585,40.9865412 L34.5097585,35.9292827 L16.5625036,35.9292827 L16.5626847,40.9865412 Z" id="Path" fill="#68B3EA"></path>
                    <g id="Group" transform="translate(13.401989, 43.828125)" fill="#D8EEFF">
                        <path d="M12.134233,5.56164418 L7.36421165,10.3316655 C6.72308949,10.9727876 5.66342685,10.9005256 5.11539418,10.178267 L0.169517045,3.66127841 L1.46317116,0.935060369 C1.84494673,0.130578835 2.84067827,-0.164264915 3.59879616,0.302993608 L12.134233,5.56164418 Z" id="Path"></path>
                        <path d="M12.134233,5.56164418 L16.9042543,10.3316655 C17.5453764,10.9727876 18.6050391,10.9005256 19.1530717,10.178267 L24.0989489,3.66127841 L22.8052947,0.935060369 C22.4235192,0.130578835 21.4277876,-0.164264915 20.6696697,0.302993608 L12.134233,5.56164418 Z" id="Path"></path>
                    </g>
                    <path d="M25.5362216,40.4162322 C17.27625,40.4162322 10.5801456,33.7201278 10.5801456,25.4601562 L10.5801456,23.7079368 C10.5801456,22.9146839 10.8952734,22.1538494 11.4561648,21.592777 L12.6951243,20.3538175 C13.2560156,19.7929261 13.5711435,19.0320916 13.5711435,18.2386577 L13.5711435,14.6534446 C13.5711435,13.9608878 14.0362287,13.3592472 14.7101314,13.2000533 C18.2473509,12.3646023 29.254549,10.3856357 36.7453551,15.8949396 C37.2318111,16.2526278 37.5007564,16.8403232 37.5007564,17.4441371 L37.5007564,18.2386577 C37.5007564,19.0319105 37.8158842,19.792745 38.3767756,20.3538175 L39.6157351,21.592777 C40.1766264,22.1536683 40.4917543,22.9145028 40.4917543,23.7079368 L40.4917543,25.4601562 C40.4922976,33.7201278 33.7961932,40.4162322 25.5362216,40.4162322 Z" id="Path" fill="#75C4FF"></path>
                    <path d="M1.72088778,52.4950462 C0.71102983,53.5789773 0.111019176,55.0225888 0.111019176,56.5710618 L0.111019176,65.8412536 C0.111019176,66.6672869 0.780575284,67.336843 1.60660866,67.336843 L9.08455611,67.336843 L9.08455611,62.3368146 C9.08455611,60.7501278 8.45430043,59.2284588 7.33233665,58.1066761 L1.72088778,52.4950462 Z" id="Path" fill="#D8EEFF"></path>
                </g>
            </g>
        </g>
    </g>
</svg>