<?xml version="1.0" encoding="UTF-8"?>
<svg width="67px" height="17px" viewBox="0 0 67 17" version="1.1" xmlns="http://www.w3.org/2000/svg" xmlns:xlink="http://www.w3.org/1999/xlink">
    <defs>
        <polygon id="path-1" points="0 0 1440 0 1440 569 0 569"></polygon>
        <filter x="-0.3%" y="-0.7%" width="100.6%" height="101.8%" filterUnits="objectBoundingBox" id="filter-2">
            <feOffset dx="0" dy="0" in="SourceAlpha" result="shadowOffsetOuter1"></feOffset>
            <feGaussianBlur stdDeviation="1" in="shadowOffsetOuter1" result="shadowBlurOuter1"></feGaussianBlur>
            <feComposite in="shadowBlurOuter1" in2="SourceAlpha" operator="out" result="shadowBlurOuter1"></feComposite>
            <feColorMatrix values="0 0 0 0 0.2   0 0 0 0 0.254901961   0 0 0 0 0.31372549  0 0 0 0.03 0" type="matrix" in="shadowBlurOuter1" result="shadowMatrixOuter1"></feColorMatrix>
            <feOffset dx="0" dy="2" in="SourceAlpha" result="shadowOffsetOuter2"></feOffset>
            <feGaussianBlur stdDeviation="1" in="shadowOffsetOuter2" result="shadowBlurOuter2"></feGaussianBlur>
            <feComposite in="shadowBlurOuter2" in2="SourceAlpha" operator="out" result="shadowBlurOuter2"></feComposite>
            <feColorMatrix values="0 0 0 0 0.2   0 0 0 0 0.254901961   0 0 0 0 0.31372549  0 0 0 0.03 0" type="matrix" in="shadowBlurOuter2" result="shadowMatrixOuter2"></feColorMatrix>
            <feMerge>
                <feMergeNode in="shadowMatrixOuter1"></feMergeNode>
                <feMergeNode in="shadowMatrixOuter2"></feMergeNode>
            </feMerge>
        </filter>
    </defs>
    <g id="Symbols" stroke="none" stroke-width="1" fill="none" fill-rule="evenodd">
        <g id="Navigation/Footers/v1" transform="translate(-214.000000, -521.000000)">
        
            <path d="M218.666,535.144 C219.41,535.144 220.0745,535.0315 220.6595,534.8065 C221.2445,534.5815 221.7365,534.2725 222.1355,533.8795 C222.5345,533.4865 222.839,533.026 223.049,532.498 C223.259,531.97 223.364,531.403 223.364,530.797 C223.364,530.251 223.28,529.7845 223.112,529.3975 C222.944,529.0105 222.7235,528.682 222.4505,528.412 C222.1775,528.142 221.8655,527.92 221.5145,527.746 C221.1635,527.572 220.805,527.4205 220.439,527.2915 C220.073,527.1625 219.7145,527.0455 219.3635,526.9405 C219.0125,526.8355 218.7005,526.72 218.4275,526.594 C218.1545,526.468 217.934,526.318 217.766,526.144 C217.598,525.97 217.514,525.751 217.514,525.487 C217.514,525.073 217.6535,524.7445 217.9325,524.5015 C218.2115,524.2585 218.636,524.137 219.206,524.137 C219.536,524.137 219.83,524.1805 220.088,524.2675 C220.346,524.3545 220.5755,524.452 220.7765,524.56 C220.9775,524.668 221.1575,524.7655 221.3165,524.8525 C221.4755,524.9395 221.624,524.983 221.762,524.983 C221.918,524.983 222.0455,524.947 222.1445,524.875 C222.2435,524.803 222.338,524.695 222.428,524.551 L222.428,524.551 L223.184,523.138 C222.95,522.922 222.6845,522.7285 222.3875,522.5575 C222.0905,522.3865 221.771,522.2395 221.429,522.1165 C221.087,521.9935 220.7255,521.9005 220.3445,521.8375 C219.9635,521.7745 219.572,521.743 219.17,521.743 C218.45,521.743 217.811,521.8525 217.253,522.0715 C216.695,522.2905 216.224,522.583 215.84,522.949 C215.456,523.315 215.165,523.732 214.967,524.2 C214.769,524.668 214.67,525.148 214.67,525.64 C214.67,526.252 214.754,526.7665 214.922,527.1835 C215.09,527.6005 215.3105,527.9485 215.5835,528.2275 C215.8565,528.5065 216.167,528.7315 216.515,528.9025 C216.863,529.0735 217.22,529.2175 217.586,529.3345 C217.952,529.4515 218.309,529.558 218.657,529.654 C219.005,529.75 219.3155,529.861 219.5885,529.987 C219.8615,530.113 220.082,530.272 220.25,530.464 C220.418,530.656 220.502,530.905 220.502,531.211 C220.502,531.739 220.349,532.1245 220.043,532.3675 C219.737,532.6105 219.308,532.732 218.756,532.732 C218.348,532.732 217.994,532.675 217.694,532.561 C217.394,532.447 217.1285,532.321 216.8975,532.183 C216.6665,532.045 216.4595,531.919 216.2765,531.805 C216.0935,531.691 215.912,531.634 215.732,531.634 C215.594,531.634 215.465,531.667 215.345,531.733 C215.225,531.799 215.132,531.886 215.066,531.994 L215.066,531.994 L214.166,533.416 C214.424,533.674 214.727,533.908 215.075,534.118 C215.423,534.328 215.795,534.5095 216.191,534.6625 C216.587,534.8155 216.9965,534.934 217.4195,535.018 C217.8425,535.102 218.258,535.144 218.666,535.144 Z M227.666,535 L227.666,530.869 L228.206,530.869 C228.386,530.869 228.521,530.8915 228.611,530.9365 C228.701,530.9815 228.788,531.079 228.872,531.229 L228.872,531.229 L230.636,534.532 C230.732,534.706 230.8565,534.8275 231.0095,534.8965 C231.1625,534.9655 231.344,535 231.554,535 L231.554,535 L234.074,535 L231.446,530.536 C231.248,530.2 231.014,529.93 230.744,529.726 C230.9,529.63 231.0455,529.522 231.1805,529.402 C231.3155,529.282 231.44,529.144 231.554,528.988 L231.554,528.988 L233.966,525.667 L231.41,525.667 C231.194,525.667 231.0155,525.703 230.8745,525.775 C230.7335,525.847 230.612,525.961 230.51,526.117 L230.51,526.117 L228.746,528.745 C228.662,528.871 228.5735,528.958 228.4805,529.006 C228.3875,529.054 228.254,529.078 228.08,529.078 L228.08,529.078 L227.666,529.078 L227.666,521.527 L224.876,521.527 L224.876,535 L227.666,535 Z M238.178,537.961 C238.442,537.961 238.634,537.9175 238.754,537.8305 C238.874,537.7435 238.976,537.607 239.06,537.421 L239.06,537.421 L244.046,525.667 L241.796,525.667 C241.634,525.667 241.4825,525.7135 241.3415,525.8065 C241.2005,525.8995 241.106,526.015 241.058,526.153 L241.058,526.153 L239.672,530.158 C239.606,530.35 239.537,530.539 239.465,530.725 C239.393,530.911 239.327,531.1 239.267,531.292 C239.177,530.92 239.06,530.548 238.916,530.176 L238.916,530.176 L237.386,526.153 C237.338,526.021 237.254,525.907 237.134,525.811 C237.014,525.715 236.846,525.667 236.63,525.667 L236.63,525.667 L234.164,525.667 L237.89,534.181 L236.09,537.961 L238.178,537.961 Z M250.832,535.144 C251.918,535.144 252.8585,534.9685 253.6535,534.6175 C254.4485,534.2665 255.11,533.746 255.638,533.056 L255.638,533.056 L254.432,531.787 C254.366,531.721 254.297,531.6745 254.225,531.6475 C254.153,531.6205 254.081,531.607 254.009,531.607 C253.919,531.607 253.832,531.6265 253.748,531.6655 C253.664,531.7045 253.586,531.754 253.514,531.814 C253.334,531.97 253.1555,532.1005 252.9785,532.2055 C252.8015,532.3105 252.6155,532.396 252.4205,532.462 C252.2255,532.528 252.014,532.5745 251.786,532.6015 C251.558,532.6285 251.306,532.642 251.03,532.642 C250.55,532.642 250.1,532.549 249.68,532.363 C249.26,532.177 248.8925,531.9055 248.5775,531.5485 C248.2625,531.1915 248.0135,530.752 247.8305,530.23 C247.6475,529.708 247.556,529.111 247.556,528.439 C247.556,527.797 247.6475,527.218 247.8305,526.702 C248.0135,526.186 248.2685,525.7465 248.5955,525.3835 C248.9225,525.0205 249.314,524.7415 249.77,524.5465 C250.226,524.3515 250.73,524.254 251.282,524.254 C251.6,524.254 251.8775,524.278 252.1145,524.326 C252.3515,524.374 252.5585,524.4325 252.7355,524.5015 C252.9125,524.5705 253.0655,524.6455 253.1945,524.7265 C253.3235,524.8075 253.442,524.8825 253.55,524.9515 C253.658,525.0205 253.76,525.079 253.856,525.127 C253.952,525.175 254.054,525.199 254.162,525.199 C254.324,525.199 254.45,525.1645 254.54,525.0955 C254.63,525.0265 254.708,524.95 254.774,524.866 L254.774,524.866 L255.8,523.489 C255.554,523.231 255.272,522.9955 254.954,522.7825 C254.636,522.5695 254.288,522.3865 253.91,522.2335 C253.532,522.0805 253.1255,521.9605 252.6905,521.8735 C252.2555,521.7865 251.792,521.743 251.3,521.743 C250.286,521.743 249.359,521.908 248.519,522.238 C247.679,522.568 246.9575,523.03 246.3545,523.624 C245.7515,524.218 245.282,524.9245 244.946,525.7435 C244.61,526.5625 244.442,527.461 244.442,528.439 C244.442,529.399 244.589,530.2885 244.883,531.1075 C245.177,531.9265 245.5985,532.6345 246.1475,533.2315 C246.6965,533.8285 247.3655,534.2965 248.1545,534.6355 C248.9435,534.9745 249.836,535.144 250.832,535.144 Z M259.382,535.144 C259.7,535.144 259.9895,535.1185 260.2505,535.0675 C260.5115,535.0165 260.7575,534.9385 260.9885,534.8335 C261.2195,534.7285 261.443,534.601 261.659,534.451 C261.875,534.301 262.1,534.127 262.334,533.929 L262.334,533.929 L262.532,534.442 C262.622,534.67 262.7345,534.82 262.8695,534.892 C263.0045,534.964 263.204,535 263.468,535 L263.468,535 L264.746,535 L264.746,529.168 C264.746,528.634 264.662,528.142 264.494,527.692 C264.326,527.242 264.0845,526.8535 263.7695,526.5265 C263.4545,526.1995 263.0705,525.9445 262.6175,525.7615 C262.1645,525.5785 261.656,525.487 261.092,525.487 C260.306,525.487 259.5695,525.6085 258.8825,525.8515 C258.1955,526.0945 257.57,526.465 257.006,526.963 L257.006,526.963 L257.51,527.836 C257.588,527.974 257.6945,528.0895 257.8295,528.1825 C257.9645,528.2755 258.128,528.322 258.32,528.322 C258.536,528.322 258.722,528.286 258.878,528.214 C259.034,528.142 259.1945,528.061 259.3595,527.971 C259.5245,527.881 259.712,527.8 259.922,527.728 C260.132,527.656 260.402,527.62 260.732,527.62 C261.146,527.62 261.4655,527.7415 261.6905,527.9845 C261.9155,528.2275 262.028,528.622 262.028,529.168 L262.028,529.168 L262.028,529.564 C260.96,529.588 260.075,529.696 259.373,529.888 C258.671,530.08 258.113,530.3185 257.699,530.6035 C257.285,530.8885 256.994,531.205 256.826,531.553 C256.658,531.901 256.574,532.24 256.574,532.57 C256.574,532.99 256.64,533.3605 256.772,533.6815 C256.904,534.0025 257.0915,534.271 257.3345,534.487 C257.5775,534.703 257.873,534.8665 258.221,534.9775 C258.569,535.0885 258.956,535.144 259.382,535.144 Z M260.264,533.299 C259.928,533.299 259.673,533.2345 259.499,533.1055 C259.325,532.9765 259.238,532.753 259.238,532.435 C259.238,532.273 259.2785,532.123 259.3595,531.985 C259.4405,531.847 259.586,531.724 259.796,531.616 C260.006,531.508 260.291,531.418 260.651,531.346 C261.011,531.274 261.47,531.226 262.028,531.202 L262.028,531.202 L262.028,532.498 C261.752,532.78 261.479,532.984 261.209,533.11 C260.939,533.236 260.624,533.299 260.264,533.299 Z M269.516,535 L269.516,529.276 C269.936,528.496 270.512,528.106 271.244,528.106 C271.454,528.106 271.628,528.1195 271.766,528.1465 C271.904,528.1735 272.024,528.187 272.126,528.187 C272.246,528.187 272.342,528.1615 272.414,528.1105 C272.486,528.0595 272.534,527.971 272.558,527.845 L272.558,527.845 L272.918,525.793 C272.66,525.589 272.318,525.487 271.892,525.487 C271.388,525.487 270.923,525.64 270.497,525.946 C270.071,526.252 269.687,526.669 269.345,527.197 L269.345,527.197 L269.192,526.324 C269.168,526.204 269.1395,526.102 269.1065,526.018 C269.0735,525.934 269.0255,525.8665 268.9625,525.8155 C268.8995,525.7645 268.8215,525.727 268.7285,525.703 C268.6355,525.679 268.52,525.667 268.382,525.667 L268.382,525.667 L266.726,525.667 L266.726,535 L269.516,535 Z M276.626,535.144 C277.262,535.144 277.8245,535.066 278.3135,534.91 C278.8025,534.754 279.2135,534.535 279.5465,534.253 C279.8795,533.971 280.13,533.635 280.298,533.245 C280.466,532.855 280.55,532.429 280.55,531.967 C280.55,531.589 280.4885,531.265 280.3655,530.995 C280.2425,530.725 280.079,530.4955 279.875,530.3065 C279.671,530.1175 279.44,529.9585 279.182,529.8295 C278.924,529.7005 278.66,529.588 278.39,529.492 C278.12,529.396 277.856,529.309 277.598,529.231 C277.34,529.153 277.109,529.0705 276.905,528.9835 C276.701,528.8965 276.5375,528.796 276.4145,528.682 C276.2915,528.568 276.23,528.424 276.23,528.25 C276.23,528.01 276.3245,527.8225 276.5135,527.6875 C276.7025,527.5525 276.974,527.485 277.328,527.485 C277.574,527.485 277.793,527.5135 277.985,527.5705 C278.177,527.6275 278.3495,527.689 278.5025,527.755 C278.6555,527.821 278.798,527.8825 278.93,527.9395 C279.062,527.9965 279.194,528.025 279.326,528.025 C279.452,528.025 279.5555,528.001 279.6365,527.953 C279.7175,527.905 279.794,527.824 279.866,527.71 L279.866,527.71 L280.496,526.729 C280.322,526.555 280.121,526.3945 279.893,526.2475 C279.665,526.1005 279.413,525.973 279.137,525.865 C278.861,525.757 278.5655,525.673 278.2505,525.613 C277.9355,525.553 277.61,525.523 277.274,525.523 C276.656,525.523 276.116,525.6025 275.654,525.7615 C275.192,525.9205 274.808,526.135 274.502,526.405 C274.196,526.675 273.9665,526.9885 273.8135,527.3455 C273.6605,527.7025 273.584,528.079 273.584,528.475 C273.584,528.901 273.647,529.264 273.773,529.564 C273.899,529.864 274.064,530.1175 274.268,530.3245 C274.472,530.5315 274.7045,530.7025 274.9655,530.8375 C275.2265,530.9725 275.492,531.088 275.762,531.184 C276.032,531.28 276.2975,531.3655 276.5585,531.4405 C276.8195,531.5155 277.052,531.5965 277.256,531.6835 C277.46,531.7705 277.625,531.874 277.751,531.994 C277.877,532.114 277.94,532.267 277.94,532.453 C277.94,532.555 277.919,532.654 277.877,532.75 C277.835,532.846 277.769,532.933 277.679,533.011 C277.589,533.089 277.469,533.1505 277.319,533.1955 C277.169,533.2405 276.986,533.263 276.77,533.263 C276.464,533.263 276.2105,533.227 276.0095,533.155 C275.8085,533.083 275.633,533.005 275.483,532.921 C275.333,532.837 275.1935,532.759 275.0645,532.687 C274.9355,532.615 274.79,532.579 274.628,532.579 C274.454,532.579 274.313,532.6135 274.205,532.6825 C274.097,532.7515 274.004,532.846 273.926,532.966 L273.926,532.966 L273.278,533.992 C273.458,534.154 273.674,534.3055 273.926,534.4465 C274.178,534.5875 274.4525,534.709 274.7495,534.811 C275.0465,534.913 275.354,534.994 275.672,535.054 C275.99,535.114 276.308,535.144 276.626,535.144 Z" id="SkyCars" fill="#FFFFFF" fill-rule="nonzero"></path>
        </g>
    </g>
</svg>